# xmcd CD database file
#
# Track frame offsets:
#	150
#	12329
#	25334
#	44298
#	59776
#	74301
#	89707
#	106771
#	119552
#	132238
#	145752
#	157805
#	176196
#	189999
#
# Disc length: 2793 seconds
#
# Revision: 0
# Processed by: cddbd v1.5.2PL0 Copyright (c) Steve Scherf et al.
# Submitted via: CDex 1.50
#
DISCID=c70ae70e
DTITLE=Various Artist - Mr. Music Country 07-07
DYEAR=2007
DGENRE=Country
TTITLE0=Daniel Leigh - Quater Over You
TTITLE1=Kevin Banford - Katie Bar The Door
TTITLE2=Jerry Adams - Haggard State Of Mine
TTITLE3=Pam Tillis - Band In The Window
TTITLE4=Levi Webb - Two Hearts
TTITLE5=Jerry Burkheart - Lonely, Sad And Blue
TTITLE6=Annie Sims - Tennessee Fix
TTITLE7=Dan Tylor - Whatever Turns You On
TTITLE8=Arly Karlsen and Pat Roden - Please Don't Stop Loving Me
TTITLE9=Kathy Chiavola - I Wouldn't Be Here
TTITLE10=Glenn Mayo - Southern Lady
TTITLE11=Mike Aiken - Freind Of The Devil
TTITLE12=Amie Comeaux - You Could Steal Me
TTITLE13=John Rich, Lisa Steward and others - A Very Special Angel
EXTD=YEAR: 2007
EXTT0=
EXTT1=
EXTT2=
EXTT3=
EXTT4=
EXTT5=
EXTT6=
EXTT7=
EXTT8=
EXTT9=
EXTT10=
EXTT11=
EXTT12=
EXTT13=
PLAYORDER=
